<?xml version="1.0" standalone="no"?>
<!DOCTYPE svg PUBLIC "-//W3C//DTD SVG 20010904//EN"
 "http://www.w3.org/TR/2001/REC-SVG-20010904/DTD/svg10.dtd">
<svg version="1.0" xmlns="http://www.w3.org/2000/svg"
 width="1024.000000pt" height="1024.000000pt" viewBox="0 0 1024.000000 1024.000000"
 preserveAspectRatio="xMidYMid meet">

<g transform="translate(0.000000,1024.000000) scale(0.100000,-0.100000)"
fill="#000000" stroke="none">
<path d="M0 5120 l0 -5120 5120 0 5120 0 0 4925 c0 4536 -1 4925 -16 4925 -12
0 -14 4 -7 13 6 6 13 20 16 30 5 14 2 16 -17 11 -13 -3 -27 -1 -30 5 -4 7 2
11 16 12 17 1 18 3 6 6 -10 2 -18 11 -18 19 0 8 -5 12 -10 9 -6 -4 -7 -11 -4
-17 10 -16 -38 1 -56 20 -14 14 -13 15 3 3 21 -17 35 -7 18 12 -6 8 -10 25 -9
38 2 19 -1 23 -17 21 -18 -4 -18 -2 4 17 13 12 19 21 13 21 -7 0 -12 5 -12 11
0 5 4 8 9 5 5 -4 7 3 4 14 -3 11 -1 20 5 20 6 0 13 -8 15 -17 3 -13 5 -12 6 5
0 13 -9 33 -21 45 -15 15 -23 35 -23 55 l1 32 -5058 0 -5058 0 0 -5120z
m10085 5081 c-8 -14 -25 -14 -25 0 0 5 5 7 10 4 6 -3 10 -1 10 6 0 7 3 10 6 6
3 -3 3 -10 -1 -16z m35 -46 c5 3 10 0 10 -9 0 -8 -6 -13 -12 -12 -20 3 -38 16
-38 28 0 7 5 6 15 -2 8 -6 19 -9 25 -5z m-46 -13 c2 -4 -4 -8 -14 -8 -10 0
-16 4 -14 8 3 4 9 8 14 8 5 0 11 -4 14 -8z m36 -88 c0 -2 -9 -4 -20 -4 -11 0
-20 4 -20 9 0 5 9 7 20 4 11 -3 20 -7 20 -9z m-986 -705 c86 -100 156 -185
156 -189 0 -4 -7 -14 -16 -21 -15 -12 -21 -8 -53 28 l-36 42 -45 -42 c-25 -23
-106 -94 -180 -157 -74 -63 -153 -132 -177 -153 l-42 -39 79 -95 c44 -52 80
-98 80 -102 0 -4 -9 -16 -20 -26 -20 -18 -22 -18 -83 43 l-62 61 -210 -185
c-207 -183 -326 -287 -496 -434 -48 -41 -117 -102 -154 -134 -65 -59 -67 -60
-98 -47 -79 32 -98 35 -130 23 -29 -11 -33 -10 -52 14 -18 23 -26 26 -56 20
-29 -5 -39 -2 -57 17 -22 23 -22 24 -3 41 13 12 21 14 26 6 4 -7 14 -1 27 16
19 23 20 31 10 73 -25 107 -28 95 40 159 35 33 140 126 233 207 94 82 273 241
398 353 l228 204 -26 34 c-14 19 -37 50 -51 69 -26 34 -26 36 -9 55 10 11 23
20 29 20 6 0 50 -41 97 -92 l86 -92 59 55 c45 43 351 310 373 326 2 2 -10 21
-27 42 -18 22 -32 44 -32 48 0 11 21 33 31 33 4 0 78 -81 163 -181z m-3014
-96 c94 -48 150 -113 180 -209 20 -65 20 -87 20 -1075 l0 -1009 943 -2 942 -3
67 -32 c36 -17 84 -49 107 -72 40 -40 92 -131 105 -184 3 -15 7 -420 7 -900
l0 -873 -27 -68 c-33 -84 -101 -156 -181 -194 l-58 -27 -952 -3 -953 -2 -2
-878 -3 -877 -28 -61 c-37 -79 -123 -165 -197 -196 l-55 -23 -906 0 -906 0
-76 38 c-84 42 -121 80 -165 174 l-27 58 -6 880 c-3 484 -6 881 -7 882 -1 2
-431 4 -954 5 l-953 3 -60 31 c-78 41 -146 114 -176 190 l-24 59 0 895 0 895
23 57 c33 81 106 158 184 194 l63 29 953 3 952 2 0 1025 c0 1170 -7 1078 91
1188 55 62 107 94 181 111 31 8 329 10 935 9 l888 -3 75 -37z m-3935 -218
c113 -66 112 -235 -1 -301 -84 -49 -214 -19 -255 59 -37 69 -27 153 25 212 58
67 148 79 231 30z m546 -180 c112 -73 103 -256 -14 -317 -132 -69 -277 16
-277 163 0 151 165 238 291 154z m-872 -44 c44 -31 64 -67 64 -114 0 -85 -60
-143 -145 -141 -121 4 -172 164 -80 247 43 39 113 42 161 8z m361 -147 c85
-20 166 -41 180 -47 31 -15 70 -73 70 -104 0 -38 -27 -87 -59 -106 -38 -22
-71 -21 -176 3 -123 29 -121 29 -117 -29 3 -31 -2 -60 -12 -79 -9 -17 -16 -32
-16 -34 0 -2 23 -3 50 -4 31 0 50 4 50 11 0 6 11 22 25 35 18 17 77 37 227 76
241 63 265 65 312 24 84 -74 46 -188 -73 -219 -72 -18 -74 -8 -2 12 50 14 61
21 75 51 15 32 20 56 12 56 -2 0 -23 -9 -47 -19 -24 -11 -66 -22 -94 -26 -63
-9 -137 -50 -133 -73 3 -14 14 -17 63 -15 76 4 57 -5 -106 -47 l-127 -32 -6
-41 c-26 -159 -233 -202 -323 -66 -36 55 -43 135 -15 182 l20 35 -49 4 c-104
10 -165 83 -157 189 4 51 9 64 39 95 19 20 44 40 57 45 15 6 22 17 22 35 0 35
28 91 54 109 32 23 87 18 256 -21z m-556 -132 c16 -9 43 -34 60 -55 28 -35 31
-45 31 -111 0 -64 -3 -77 -28 -109 -55 -73 -150 -96 -232 -58 -72 33 -105 86
-105 167 0 144 153 237 274 166z m-486 -378 c23 -24 32 -43 32 -66 -1 -21 -35
-102 -93 -218 -85 -171 -95 -186 -131 -204 -36 -17 -43 -18 -80 -5 -47 16 -86
67 -86 111 0 27 138 308 183 372 44 63 120 68 175 10z m777 -150 c31 -20 49
-73 36 -106 -5 -15 -6 -30 0 -39 5 -8 9 -34 9 -57 0 -37 -6 -50 -34 -78 -29
-29 -41 -34 -79 -34 -46 0 -400 70 -450 89 -89 34 -83 179 10 218 33 13 47 12
191 -16 l156 -31 32 35 c25 28 39 35 68 35 20 0 48 -7 61 -16z m656 -23 c18
-19 29 -40 29 -58 0 -34 -5 -41 -47 -70 -38 -27 -80 -29 -112 -6 -18 12 -22
13 -17 2 4 -8 0 -5 -8 5 -25 31 -20 89 10 125 22 26 33 31 71 31 36 0 50 -6
74 -29z m4837 -106 c-48 -46 -58 -52 -69 -39 -10 12 -6 21 21 49 19 19 42 37
52 41 10 3 18 13 18 22 0 15 2 15 18 -1 16 -17 14 -20 -40 -72z m159 -11 c-3
-3 -12 -4 -19 -1 -8 3 -5 6 6 6 11 1 17 -2 13 -5z m-219 -63 c-3 -8 -289 -263
-391 -348 -28 -23 -53 -40 -56 -38 -2 3 -2 6 0 8 2 2 100 90 217 195 189 171
242 213 230 183z m-2216 -6143 c1 -35 0 -101 -1 -148 l-3 -85 23 22 c46 42
116 66 173 58 74 -9 115 -33 147 -84 l29 -45 0 -217 0 -216 -67 -6 c-37 -3
-73 -3 -80 0 -10 4 -13 45 -13 185 l0 180 -29 29 c-41 41 -98 41 -143 0 l-33
-29 -3 -181 -3 -181 -80 0 -79 0 0 383 c0 211 3 387 7 390 3 4 39 7 80 7 l73
0 2 -62z m-421 -34 c79 -23 143 -92 159 -170 20 -95 -4 -176 -72 -241 -52 -50
-100 -66 -220 -71 l-108 -5 0 -97 0 -97 -72 -6 c-40 -3 -75 -4 -78 -1 -3 3 -6
163 -8 355 l-3 349 174 0 c129 0 187 -4 228 -16z m1272 -140 c52 -19 85 -48
108 -99 15 -32 19 -65 19 -170 0 -133 3 -147 31 -157 13 -5 16 -16 12 -55 -7
-73 -7 -73 -69 -73 -50 0 -60 4 -89 33 l-32 32 -38 -27 c-99 -72 -239 -52
-303 42 -34 49 -28 132 12 185 42 55 100 76 221 83 l103 5 -9 31 c-21 72 -89
81 -245 31 -19 -6 -24 0 -38 41 -9 26 -16 52 -16 56 0 15 85 48 147 57 67 11
127 6 186 -15z m1122 1 c17 -7 43 -24 58 -39 l29 -27 33 29 c98 87 248 78 312
-18 38 -55 44 -99 41 -302 l-3 -193 -75 0 -75 0 -5 180 c-5 185 -11 214 -50
235 -28 15 -82 12 -108 -6 -45 -32 -52 -62 -52 -239 l0 -165 -75 0 -75 0 0
154 c0 84 -3 167 -6 185 -10 49 -46 81 -93 81 -94 0 -105 -24 -111 -250 l-5
-175 -61 -3 c-99 -5 -96 -15 -92 292 l3 261 75 0 c74 0 75 0 78 -27 4 -30 19
-37 29 -13 7 21 54 44 106 54 45 9 75 5 122 -14z m-4403 -1 c64 -21 122 -75
155 -142 23 -47 28 -70 28 -132 -1 -64 -5 -83 -30 -130 -55 -100 -179 -167
-288 -156 -162 16 -279 138 -281 291 -1 49 5 73 32 128 36 73 74 108 149 137
60 24 173 26 235 4z m432 0 c3 -9 6 -24 6 -34 0 -17 6 -16 52 13 47 29 58 32
133 32 70 0 86 -3 118 -25 66 -45 72 -67 75 -316 l3 -221 -72 3 c-45 2 -75 8
-80 16 -5 7 -9 89 -9 181 l0 169 -29 29 c-24 23 -38 29 -73 29 -47 0 -65 -10
-92 -50 -13 -20 -16 -54 -16 -203 0 -159 -2 -178 -16 -173 -9 3 -45 6 -80 6
l-64 0 0 274 0 275 53 4 c28 2 59 4 68 5 9 1 20 -5 23 -14z m919 -16 c92 -50
137 -131 137 -250 l0 -58 -200 0 c-224 0 -230 -2 -167 -64 55 -56 150 -56 215
-1 l29 24 47 -47 46 -48 -27 -26 c-81 -78 -237 -98 -344 -45 -180 88 -223 308
-90 459 52 60 121 88 214 88 70 0 86 -4 140 -32z m2358 -28 c3 -30 6 -48 7
-39 2 17 56 71 89 88 12 6 38 11 57 11 l36 0 0 -75 0 -74 -37 -6 c-76 -13
-103 -27 -128 -63 -24 -35 -25 -43 -25 -189 l0 -153 -80 0 -80 0 0 273 c0 151
3 277 7 281 4 4 39 5 78 4 l70 -3 6 -55z m1687 30 c30 -17 49 -38 67 -74 23
-46 25 -61 25 -189 0 -131 1 -139 20 -144 19 -5 21 -12 18 -67 l-3 -61 -63 0
c-60 0 -66 3 -93 33 l-30 33 -34 -30 c-105 -92 -288 -44 -324 83 -23 85 37
182 127 205 20 5 79 13 130 17 92 7 93 7 90 32 -2 14 -16 34 -31 46 -37 27
-124 27 -188 -1 l-45 -20 -20 58 -21 58 46 19 c69 30 78 31 186 29 85 -2 106
-6 143 -27z m1581 -724 c27 -66 96 -134 163 -162 27 -10 48 -22 48 -25 0 -3
-24 -15 -54 -28 -66 -27 -134 -96 -162 -163 -10 -27 -21 -48 -24 -48 -3 0 -16
25 -29 55 -28 65 -97 133 -163 161 -27 10 -48 21 -48 24 0 3 21 14 48 24 67
28 136 96 163 162 13 30 26 54 29 54 3 0 16 -24 29 -54z"/>
<path d="M8340 8817 c0 -11 123 -157 133 -157 9 0 -26 46 -92 120 -22 25 -40
41 -41 37z"/>
<path d="M8370 8697 c0 -7 14 -26 30 -42 17 -16 30 -25 30 -21 0 5 -13 24 -30
43 -16 18 -30 28 -30 20z"/>
<path d="M8320 8664 c0 -6 16 -25 35 -44 19 -19 35 -29 35 -24 0 6 -16 25 -35
44 -19 19 -35 29 -35 24z"/>
<path d="M8040 8634 c0 -11 13 -27 30 -36 41 -23 50 -65 19 -89 -13 -10 -32
-19 -41 -19 -23 0 -23 -11 2 -43 11 -14 20 -30 20 -35 0 -5 7 -15 15 -22 8 -7
15 -18 15 -24 0 -6 -14 5 -30 24 -36 43 -40 20 -4 -27 18 -23 29 -31 37 -24 8
6 24 -1 51 -24 l39 -33 34 34 c18 19 43 34 53 34 29 0 25 21 -17 76 -49 67
-77 96 -155 166 -51 45 -68 55 -68 42z"/>
<path d="M8280 8634 c0 -6 16 -26 36 -45 22 -20 32 -26 26 -14 -13 25 -62 72
-62 59z"/>
<path d="M8169 8595 c16 -32 100 -121 101 -107 0 8 -25 39 -56 70 -30 32 -51
48 -45 37z"/>
<path d="M8250 8589 c0 -16 46 -66 54 -58 3 2 -9 20 -25 39 -18 22 -29 29 -29
19z"/>
<path d="M7988 8583 c-20 -5 -22 -12 -8 -33 9 -13 12 -12 25 4 8 11 15 23 15
28 0 8 -4 9 -32 1z"/>
<path d="M7966 8418 c27 -44 88 -117 95 -113 9 6 -79 125 -93 125 -5 0 -6 -6
-2 -12z"/>
<path d="M7990 8305 c18 -19 36 -32 39 -30 6 7 -50 65 -63 65 -5 0 5 -16 24
-35z"/>
<path d="M7930 8302 c0 -11 59 -67 64 -61 7 6 -43 69 -55 69 -5 0 -9 -4 -9 -8z"/>
<path d="M7825 8273 c33 -52 77 -103 87 -103 6 0 -1 15 -16 33 -15 17 -36 47
-47 65 -12 17 -26 32 -31 32 -6 0 -2 -12 7 -27z"/>
<path d="M7890 8269 c0 -23 46 -63 64 -56 9 4 16 12 15 19 0 10 -2 10 -6 0 -4
-10 -15 -4 -39 19 -23 22 -34 28 -34 18z"/>
<path d="M7820 8194 c0 -6 14 -23 30 -39 17 -16 30 -24 30 -19 0 6 -13 23 -30
39 -16 16 -30 24 -30 19z"/>
<path d="M7770 8172 c0 -4 16 -23 35 -42 41 -39 47 -26 9 19 -25 30 -44 40
-44 23z"/>
<path d="M7741 8145 c0 -16 57 -81 64 -73 4 3 -9 24 -29 45 -19 21 -35 34 -35
28z"/>
<path d="M7641 8123 c6 -19 101 -115 107 -108 3 3 -20 31 -52 63 -32 31 -57
52 -55 45z"/>
<path d="M7719 8103 c19 -32 51 -66 57 -60 3 3 -7 22 -23 41 -29 37 -51 49
-34 19z"/>
<path d="M5053 8050 c-257 -36 -517 -184 -667 -380 -101 -131 -165 -271 -198
-430 -29 -137 -21 -347 16 -474 44 -146 126 -304 202 -386 13 -14 35 -55 50
-90 38 -95 55 -111 71 -65 l8 24 66 -42 c36 -24 92 -56 123 -73 41 -21 56 -35
56 -50 0 -27 38 -141 56 -169 8 -12 12 -24 9 -27 -3 -3 -2 -24 4 -47 5 -23 5
-38 0 -35 -5 3 -9 -1 -10 -8 0 -7 -3 -22 -5 -33 -3 -11 -7 -42 -9 -70 -2 -27
-7 -61 -10 -75 -4 -14 -8 -34 -10 -46 -3 -18 -125 -145 -140 -146 -4 0 -36 26
-72 59 -35 32 -69 57 -74 55 -5 -1 -9 4 -9 10 0 9 -3 8 -10 -2 -5 -9 -5 -19 0
-26 6 -6 7 -13 4 -17 -9 -8 16 -159 31 -188 8 -14 20 -31 28 -37 11 -10 11
-23 0 -89 -26 -141 -5 -257 77 -450 108 -250 331 -622 491 -816 13 -16 187
235 302 433 92 161 210 407 248 520 26 78 32 111 32 185 0 52 -6 114 -15 147
l-16 58 34 79 c48 109 55 163 54 411 0 218 10 317 36 357 20 32 17 58 -10 90
l-24 28 -24 -20 -23 -20 18 22 c11 13 14 23 8 27 -11 7 -4 35 13 51 55 52 48
58 -14 10 -41 -31 -92 -66 -112 -76 -21 -11 -38 -22 -38 -24 0 -3 14 2 30 10
28 14 31 14 36 0 5 -12 9 -13 21 -4 11 10 13 9 11 -2 -2 -8 3 -13 10 -11 21 4
13 -5 -24 -27 -19 -12 -40 -18 -46 -15 -6 4 -8 2 -5 -3 9 -15 -120 -68 -210
-87 -26 -6 -32 -4 -38 13 -3 12 -12 21 -18 21 -7 0 -3 8 8 17 19 15 19 15 -5
9 -14 -4 -93 -10 -175 -15 -83 -4 -156 -10 -162 -14 -7 -4 -20 0 -30 10 -10
10 -54 29 -98 42 -199 57 -395 201 -500 366 -52 80 -109 207 -130 285 -10 39
-19 121 -22 205 -6 155 10 249 64 383 56 143 178 307 292 393 93 70 270 155
361 174 236 50 458 19 659 -91 98 -53 164 -108 248 -203 168 -192 244 -411
230 -660 -13 -211 -72 -368 -209 -549 -28 -37 -44 -61 -36 -55 8 7 30 11 51 8
32 -4 39 0 76 41 56 64 137 233 165 346 82 321 7 656 -201 903 -105 124 -253
234 -384 285 -161 62 -370 91 -516 70z m106 -2002 c11 -18 8 -18 -56 -12 -74
7 -78 8 -69 22 3 5 30 9 59 9 42 0 57 -5 66 -19z m-152 6 c-3 -3 -12 -4 -19
-1 -8 3 -5 6 6 6 11 1 17 -2 13 -5z m261 -419 c81 -19 155 -56 225 -111 62
-48 140 -141 132 -155 -3 -4 -21 -8 -39 -7 -35 1 -42 12 -49 84 -2 25 -26 56
-37 49 -5 -3 -11 -1 -15 5 -9 14 -84 6 -121 -13 -38 -19 -114 -19 -136 1 -10
8 -18 12 -18 7 0 -4 -13 7 -29 25 -27 31 -29 32 -27 10 0 -13 -6 -25 -14 -27
-11 -3 -11 -2 -3 4 21 15 -1 28 -49 29 -39 1 -46 -2 -39 -14 10 -18 2 -54 -10
-46 -5 3 -9 -3 -9 -13 0 -11 -3 -14 -8 -7 -4 6 -14 11 -22 11 -26 0 -150 65
-161 84 -8 16 -2 22 42 45 103 51 264 68 387 39z m-728 -109 c0 -3 -4 -8 -10
-11 -5 -3 -10 -1 -10 4 0 6 5 11 10 11 6 0 10 -2 10 -4z m715 -77 c11 -16 -1
-22 -30 -15 -14 4 -23 11 -20 16 8 13 42 13 50 -1z m17 -113 c70 -33 137 -105
161 -172 26 -73 23 -186 -7 -249 -30 -65 -96 -132 -154 -158 -66 -28 -175 -34
-241 -12 -68 22 -152 99 -187 172 -63 127 -17 310 97 389 101 70 223 81 331
30z"/>
<path d="M5156 7891 c30 -29 97 -81 104 -81 5 0 21 11 37 24 l28 24 -25 21
c-19 16 -39 20 -89 21 -39 0 -61 -4 -55 -9z"/>
<path d="M5356 7775 l-29 -23 50 -56 c137 -150 131 -299 -17 -441 l-57 -54 36
-3 c24 -2 36 -8 36 -18 0 -11 -15 -16 -60 -18 -51 -2 -67 -8 -103 -37 l-43
-33 30 -21 c16 -12 32 -21 36 -21 14 0 133 98 193 159 40 41 76 91 99 137 34
69 35 77 31 151 -4 61 -11 91 -35 138 -29 56 -116 165 -131 165 -4 -1 -20 -11
-36 -25z"/>
<path d="M5040 6997 c-140 -110 -224 -242 -223 -351 0 -55 28 -183 42 -196 3
-3 30 -31 60 -62 l54 -56 -31 -16 c-23 -12 -29 -21 -25 -36 3 -11 0 -20 -6
-20 -6 0 -11 -11 -11 -24 0 -20 7 -25 44 -35 l45 -11 49 48 c27 26 87 74 133
107 46 32 99 72 117 87 l33 28 -146 0 c-80 0 -144 -3 -144 -7 5 -31 -4 -32
-19 -3 -11 23 -14 38 -7 43 5 4 87 7 180 6 l170 -1 28 43 c15 24 27 47 27 51
0 5 -86 6 -191 2 -159 -6 -192 -5 -200 7 -5 8 -9 17 -9 22 0 4 92 7 205 7
l205 0 0 24 c0 13 -3 38 -6 56 l-7 32 -191 -3 c-186 -4 -191 -3 -191 16 0 19
7 20 182 20 l182 0 -19 30 -19 30 -176 -1 c-96 -1 -175 2 -175 5 0 13 77 89
118 116 23 15 42 31 42 36 0 8 -49 49 -59 49 -3 0 -31 -20 -61 -43z m-47 -545
c-4 -10 -2 -13 5 -8 7 4 12 2 12 -3 0 -19 -17 -12 -33 13 -15 22 -15 24 3 19
12 -3 16 -10 13 -21z"/>
<path d="M5477 6784 c50 -109 39 -205 -36 -314 -41 -60 -146 -153 -225 -201
l-51 -30 90 3 c88 2 90 2 93 -21 l4 -24 -106 6 c-104 6 -156 -2 -156 -26 0
-17 238 -1 325 22 108 30 230 91 294 149 l53 47 5 216 6 216 -64 7 c-35 4
-107 6 -160 5 l-97 -2 25 -53z"/>
<path d="M5815 6260 c-4 -6 48 -65 114 -131 l121 -120 35 27 c38 29 46 53 18
55 -10 1 -29 3 -43 4 -14 2 -30 -1 -37 -7 -8 -6 -15 -2 -24 14 -15 29 -153
168 -167 168 -6 0 -14 -5 -17 -10z"/>
<path d="M6002 5957 c-8 -10 20 -45 119 -147 71 -74 179 -190 240 -257 61 -68
128 -137 148 -155 21 -18 66 -66 101 -105 62 -72 110 -100 146 -86 22 8 17 15
-37 58 -28 22 -94 85 -148 139 -53 55 -133 136 -177 180 -45 45 -101 104 -124
131 -23 28 -72 82 -109 121 -36 39 -79 85 -94 103 -31 33 -48 38 -65 18z"/>
<path d="M1954 8535 c-14 -36 45 -66 174 -89 28 -5 34 -2 42 20 15 38 12 62
-7 68 -10 3 -60 8 -110 12 -81 5 -94 4 -99 -11z"/>
<path d="M1128 8089 c-16 -21 -28 -43 -28 -48 0 -5 -6 -14 -14 -20 -8 -6 -19
-33 -26 -58 -10 -42 -9 -49 6 -60 29 -21 40 -15 59 30 10 23 29 66 42 95 22
49 22 54 7 77 -9 14 -17 25 -18 25 0 -1 -13 -19 -28 -41z"/>
<path d="M1431 7821 c-25 -16 44 -48 140 -66 49 -9 94 -13 99 -10 6 3 10 19
10 36 0 27 -2 29 -29 24 -16 -3 -67 2 -112 10 -99 17 -91 17 -108 6z"/>
<path d="M4500 1390 l0 -110 63 0 c124 0 177 34 177 115 0 72 -56 103 -187
105 l-53 0 0 -110z"/>
<path d="M5822 1168 c-46 -23 -41 -98 8 -118 39 -16 91 -6 124 25 20 18 26 34
26 65 l0 40 -67 -1 c-38 0 -78 -5 -91 -11z"/>
<path d="M2561 1353 c-52 -27 -74 -64 -78 -130 -5 -68 16 -111 69 -143 69 -42
161 -8 192 71 50 125 -72 260 -183 202z"/>
<path d="M3878 1364 c-16 -8 -37 -32 -48 -54 l-20 -40 125 0 c133 0 137 2 111
48 -30 56 -111 78 -168 46z"/>
<path d="M7920 1173 c-75 -28 -60 -133 19 -133 72 0 121 40 121 100 l0 40 -62
-1 c-35 0 -70 -3 -78 -6z"/>
<path d="M10197 10226 c-4 -10 -1 -13 9 -9 7 3 14 9 14 14 0 14 -17 10 -23 -5z"/>
<path d="M10175 10110 c-3 -5 -1 -10 4 -10 6 0 11 5 11 10 0 6 -2 10 -4 10 -3
0 -8 -4 -11 -10z"/>
<path d="M10206 10103 c-6 -14 -5 -15 5 -6 7 7 10 15 7 18 -3 3 -9 -2 -12 -12z"/>
<path d="M10145 9990 c3 -5 8 -10 11 -10 2 0 4 5 4 10 0 6 -5 10 -11 10 -5 0
-7 -4 -4 -10z"/>
</g>
</svg>
